<svg width="30" height="30" viewBox="0 0 30 30" fill="none" xmlns="http://www.w3.org/2000/svg">
<path d="M21.8373 15.6029V13.8115H20.0824V15.4494H18.5855V13.8115H16.8306V15.4494H15.6606V23.3622H16.8306V25.1051H18.5855V23.3622H20.0824V25.1051H21.8373V23.2087C22.7535 22.8648 23.4074 21.9801 23.4074 20.9453C23.4074 20.3608 23.1988 19.8242 22.8522 19.4058C23.1988 18.9873 23.4074 18.4507 23.4074 17.8663C23.4074 16.8315 22.7535 15.9469 21.8373 15.6029ZM17.4155 17.2043H20.9905C21.3555 17.2043 21.6526 17.5013 21.6526 17.8664C21.6526 18.2314 21.3555 18.5284 20.9905 18.5284H17.4155V17.2043ZM20.9905 20.2833C21.3555 20.2833 21.6526 20.5803 21.6526 20.9453C21.6526 21.3103 21.3555 21.6074 20.9905 21.6074H17.4155V20.2833H20.9905V20.2833Z" fill="#EDAE50"/>
<path d="M19.7906 10.1637C19.6542 5.15484 15.5373 1.12207 10.496 1.12207C5.36893 1.12207 1.19775 5.29324 1.19775 10.4203C1.19775 15.4615 5.23053 19.5785 10.2394 19.7149C10.3758 24.7238 14.4927 28.7566 19.534 28.7566C24.661 28.7566 28.8322 24.5854 28.8322 19.4583C28.8323 14.417 24.7996 10.3001 19.7906 10.1637ZM2.95275 10.4203C2.95275 6.26092 6.33666 2.87701 10.4961 2.87701C14.6089 2.87701 17.9631 6.18574 18.0377 10.2811C17.2139 10.4149 16.426 10.657 15.6894 10.9928C15.7104 10.8025 15.7216 10.6093 15.7216 10.4135C15.7216 7.5283 13.3744 5.18103 10.4892 5.18103C7.60405 5.18103 5.25678 7.5283 5.25678 10.4135C5.25678 13.2986 7.60405 15.6459 10.4892 15.6459C10.685 15.6459 10.8783 15.6347 11.0686 15.6136C10.7327 16.3502 10.4907 17.1381 10.3568 17.9619C6.26149 17.8873 2.95275 14.5332 2.95275 10.4203ZM10.4892 13.891C8.57166 13.891 7.01166 12.3309 7.01166 10.4135C7.01166 8.49598 8.57166 6.93592 10.4892 6.93592C12.4067 6.93592 13.9667 8.49598 13.9667 10.4135C13.9667 12.3309 12.4067 13.891 10.4892 13.891ZM19.5341 27.0016C15.3747 27.0016 11.9907 23.6177 11.9907 19.4583C11.9907 15.2988 15.3747 11.9149 19.5341 11.9149C23.6935 11.9149 27.0774 15.2988 27.0774 19.4583C27.0774 23.6177 23.6935 27.0016 19.5341 27.0016Z" fill="#EDAE50"/>
<path d="M3.85459 24.2997L4.71346 25.1585L5.95436 23.9177L2.97715 20.9404L0 23.9177L1.24096 25.1585L2.09971 24.2997V30.0001H10.4597V28.2453H3.85459V24.2997Z" fill="#EDAE50"/>
<path d="M26.1456 5.70047L25.2868 4.84166L24.0459 6.0825L27.023 9.05965L30.0002 6.0825L28.7593 4.84166L27.9004 5.70053V0H19.5405V1.75488H26.1456V5.70047Z" fill="#EDAE50"/>
</svg>
