<svg width="54" height="54" viewBox="0 0 54 54" fill="none" xmlns="http://www.w3.org/2000/svg">
<path d="M49.6912 10.6492L54 6.52725V5.625H39.0735L28.4355 32.103L16.3327 5.625H0.68175V6.52725L5.715 12.5865C6.2055 13.0342 6.462 13.689 6.39675 14.3482V38.16C6.552 39.0172 6.273 39.8992 5.67 40.5225L0 47.394V48.285H16.0762V47.3827L10.4062 40.5225C9.792 39.897 9.50175 39.0307 9.6255 38.16V17.5635L23.7375 48.2962H25.3777L37.512 17.5635V42.0457C37.512 42.6915 37.512 42.8242 37.089 43.2472L32.724 47.4705V48.375H53.901V47.4727L49.6935 43.353C49.3245 43.074 49.1332 42.606 49.212 42.1515V11.8507C49.1332 11.394 49.3222 10.926 49.6912 10.6492Z" fill="#1B1B1B"/>
</svg>
