<svg width="461" height="461" viewBox="0 0 461 461" fill="none" xmlns="http://www.w3.org/2000/svg">
<path d="M447.441 316.373C426.161 316.373 415.036 321.935 405.219 326.844C395.168 332.628 381.604 335.93 366.088 333.946V298.294C403.47 298.294 433.882 267.882 433.882 230.5V189.824H406.765C369.383 189.824 338.971 220.236 338.971 257.618V323.898C330.404 319.95 319.872 316.373 302.807 316.373C269.948 316.373 261.741 329.53 244.053 333.214V244.059H244.059C281.44 244.059 311.853 213.646 311.853 176.265V135.588H284.735C269.483 135.588 255.393 140.655 244.053 149.188V108.471H244.059C281.44 108.471 311.853 78.0581 311.853 40.6765V0H284.735C262.582 0 242.878 10.6825 230.5 27.1647C218.122 10.6825 198.418 0 176.265 0H149.147V40.6765C149.147 78.0563 179.557 108.468 216.936 108.471V149.18C205.598 140.651 191.512 135.588 176.265 135.588H149.147V176.265C149.147 213.645 179.557 244.055 216.936 244.059V333.214C199.039 329.486 191.165 316.373 158.183 316.373C141.125 316.373 130.594 319.948 122.029 323.894C122.029 301.77 122.029 279.721 122.029 257.618C122.029 220.236 91.617 189.824 54.2353 189.824H27.1176V230.5C27.1176 267.882 57.5301 298.294 94.9118 298.294V333.945C57.2571 338.499 54.087 315.859 13.5588 316.373H0V461H461V316.373H447.441ZM366.088 257.618C366.088 235.188 384.336 216.941 406.765 216.941V230.5C406.765 252.93 388.518 271.176 366.088 271.176V257.618ZM54.2353 230.5V216.941C76.6643 216.941 94.9118 235.188 94.9118 257.618V271.176C72.4828 271.176 54.2353 252.93 54.2353 230.5ZM284.735 162.706V176.265C284.735 198.694 266.489 216.941 244.059 216.941V203.382C244.059 180.953 262.306 162.706 284.735 162.706ZM284.735 27.1176V40.6765C284.735 63.1055 266.489 81.3529 244.059 81.3529V67.7941C244.059 45.3651 262.306 27.1176 284.735 27.1176ZM176.265 40.6765V27.1176C198.694 27.1176 216.941 45.3651 216.941 67.7941H216.936V81.3529C194.509 81.3502 176.265 63.1037 176.265 40.6765ZM176.265 176.265V162.706C198.618 162.706 216.813 180.831 216.936 203.156V216.941C194.509 216.938 176.265 198.692 176.265 176.265ZM433.882 433.882H27.1176V344.721C44.9963 348.445 52.8875 361.569 85.8707 361.569C107.15 361.569 118.275 356.006 128.091 351.098C136.592 346.847 143.306 343.49 158.183 343.49C173.059 343.49 179.774 346.847 188.274 351.098C211.837 365.018 249.107 365.041 272.714 351.098C290.149 340.862 315.495 340.876 332.903 351.098C342.718 356.006 353.845 361.569 375.124 361.569C408.027 361.569 416.178 348.408 433.882 344.721V433.882Z" fill="url(#paint0_linear_280_102363)" fill-opacity="0.4"/>
<defs>
<linearGradient id="paint0_linear_280_102363" x1="230.5" y1="0" x2="230.5" y2="461" gradientUnits="userSpaceOnUse">
<stop stop-color="white"/>
<stop offset="0.851562" stop-color="white" stop-opacity="0"/>
</linearGradient>
</defs>
</svg>
