<svg width="38" height="50" viewBox="0 0 38 50" fill="none" xmlns="http://www.w3.org/2000/svg">
<path d="M36.972 26.3518L2.52525 49.3163C2.28054 49.4791 1.99625 49.5726 1.70265 49.5866C1.40905 49.6006 1.11713 49.5348 0.857997 49.396C0.598862 49.2573 0.382212 49.0509 0.231119 48.7988C0.0800266 48.5466 0.000151841 48.2582 0 47.9643V2.03529C0.000151841 1.74136 0.0800266 1.45297 0.231119 1.20083C0.382212 0.948704 0.598862 0.742275 0.857997 0.603537C1.11713 0.464798 1.40905 0.398944 1.70265 0.412989C1.99625 0.427035 2.28054 0.520454 2.52525 0.683295L36.972 23.6478C37.1946 23.7962 37.377 23.9972 37.5032 24.2331C37.6295 24.4689 37.6955 24.7323 37.6955 24.9998C37.6955 25.2673 37.6295 25.5306 37.5032 25.7665C37.377 26.0023 37.1946 26.2034 36.972 26.3518Z" fill="black"/>
</svg>
