<svg width="30" height="30" viewBox="0 0 30 30" fill="none" xmlns="http://www.w3.org/2000/svg">
<g clip-path="url(#clip0_280_102628)">
<path d="M26.3505 13.1886C26.9742 12.846 27.5954 12.5058 27.7963 11.7844C28.079 10.773 27.2203 9.8753 27.0646 9.40166C27.2704 8.94307 28.3417 8.21948 28.2269 7.18918C28.097 6.02983 26.7958 5.56612 26.4745 5.23983C26.2299 4.67336 26.421 3.00277 25.155 2.65001C23.8899 2.29636 23.1805 3.82859 22.6853 4.18207C22.2433 4.29448 20.887 4.01818 20.1761 4.94218C19.5447 5.76254 20.0849 6.9363 20.0247 7.43595C19.8287 7.60418 19.2621 7.84513 18.8498 8.15742C17.9751 7.58595 16.9666 7.20301 15.8824 7.06724V6.33807C15.8824 5.45742 16.3717 4.66571 17.1594 4.27189L16.3701 2.69354C14.9808 3.38824 14.1177 4.78477 14.1177 6.33807V7.06718C12.4203 7.27977 10.9087 8.09754 9.80558 9.29671C9.56205 8.41448 9.2967 7.5843 9.02576 6.86418C8.32335 4.99807 7.65423 4.03924 6.78864 3.65795C6.10429 3.3563 5.45829 3.49577 4.89853 3.69524C4.31476 2.50001 3.35618 1.52695 2.15918 0.928711L1.37035 2.5073C2.17153 2.90771 2.82206 3.54512 3.2407 4.32783C2.75053 4.54548 2.26647 4.86577 1.98718 5.46524C1.58765 6.3226 1.71676 7.4846 2.41894 9.35048C2.85253 10.503 3.48941 11.8687 4.20212 13.1886C3.30188 13.1886 0.871411 13.1886 0 13.1886V29.071H30C30 25.9033 30 16.3806 30 13.1886C29.0204 13.1886 27.1912 13.1886 26.3505 13.1886ZM26.4706 14.9533H28.2353V16.718H26.4706V14.9533ZM21.6187 8.21095C21.9763 7.45554 21.6711 6.57336 21.6322 6.0266C22.14 5.92548 22.9632 6.08718 23.5925 5.69707C23.986 5.45277 24.2823 5.0853 24.5723 4.73677C24.781 6.10565 24.9429 6.3776 25.936 7.01913C26.0809 7.11271 26.3023 7.25571 26.4195 7.36283C26.1026 7.81066 25.3854 8.40713 25.3 9.23818C25.2126 10.0861 25.8887 10.8106 26.0683 11.302C25.9532 11.3943 25.7189 11.5225 25.5684 11.605C24.8522 11.9967 24.3072 12.3501 24.1922 13.1886C22.6347 13.1886 23.2233 13.1886 22.0038 13.1886C21.8205 11.7255 21.1876 10.4004 20.2483 9.35595C20.7601 9.06907 21.3445 8.79048 21.6187 8.21095ZM21.1765 23.7768H8.82358V22.0121H21.1765V23.7768ZM8.82358 20.2474V18.4827H21.1765V20.2474H8.82358ZM21.1765 14.9533V16.718H8.82358V14.9533H21.1765ZM15.0001 8.77683C17.6186 8.77683 19.7989 10.688 20.2202 13.1886H9.77988C10.2012 10.688 12.3814 8.77683 15.0001 8.77683ZM3.58682 6.21036C3.668 6.03624 3.96523 5.92401 4.44341 5.75542C5.36194 5.43112 5.82529 5.16195 6.07729 5.27295C6.24453 5.3466 6.70553 5.70971 7.37417 7.48583C7.78094 8.56671 8.17659 9.92048 8.49723 11.3251C8.24911 11.9103 8.078 12.5358 7.99623 13.1887C7.35164 13.1887 6.78517 13.1887 6.22264 13.1887C5.36141 11.6932 4.57017 10.057 4.07059 8.72913C3.40235 6.95301 3.50965 6.37601 3.58682 6.21036ZM1.76476 14.9533H3.52947V16.718H1.76476V14.9533ZM1.76476 18.4827H3.52947V20.2474H1.76476V18.4827ZM3.52947 23.7768H1.76476V22.0121H3.52947V23.7768ZM1.76476 27.3063V25.5415H3.52947V27.3063H1.76476ZM5.29417 27.3063C5.29417 24.8774 5.29417 17.6039 5.29417 14.9533H7.05888V27.3063H5.29417ZM8.82358 27.3063V25.5415H21.1765V27.3063H8.82358ZM22.9412 27.3063C22.9412 26.7484 22.9412 15.4894 22.9412 14.9533H24.7059V27.3063H22.9412ZM26.4706 22.0121H28.2353V23.7768H26.4706V22.0121ZM28.2353 27.3063H26.4706V25.5415H28.2353V27.3063ZM28.2353 20.2474H26.4706V18.4827H28.2353V20.2474Z" fill="black"/>
</g>
<defs>
<clipPath id="clip0_280_102628">
<rect width="30" height="30" fill="white"/>
</clipPath>
</defs>
</svg>
