<svg width="31" height="31" viewBox="0 0 31 31" fill="none" xmlns="http://www.w3.org/2000/svg">
<path d="M30.6505 30.0928C29.9047 28.4567 29.0227 26.977 27.8513 25.6307C27.8079 25.6082 27.8312 25.5635 27.7878 25.541C27.4907 25.1596 26.8825 25.695 27.113 26.0985C27.7243 27.0403 28.2256 27.9818 28.5706 29.0124C24.103 26.0674 19.4729 23.4352 14.6105 21.25C12.1577 20.1461 9.61201 19.2211 7.1824 18.0725C5.83605 17.4866 4.40615 16.7439 3.20221 15.778C2.10504 14.9243 1.6253 14.7886 2.25837 13.358C2.8249 11.9496 3.24429 11.8837 4.66811 11.2611C7.04682 10.2833 9.51057 10.201 12.0471 9.87265C13.4585 9.69771 15.0293 9.32181 15.8991 8.07098C18.0242 5.14519 15.2605 1.77989 12.9532 0.184056C12.8665 0.13904 12.7968 0.273126 12.8603 0.362838C13.8414 1.44002 14.8921 2.38311 15.5141 3.72783C16.8185 6.61886 14.6486 8.78354 12.0023 9.11154C9.92848 9.39645 7.92746 9.43537 5.8908 9.96659C3.60807 10.6538 -0.993025 12.5204 1.45347 15.4371C4.45395 18.9822 10.1768 20.2523 14.236 22.077C19.0549 24.2397 23.6851 26.8719 28.0661 29.7719C27.2536 29.7471 26.3978 29.6999 25.5621 29.7198C25.0127 29.7182 25.0544 30.5912 25.6038 30.5928C27.1622 30.6645 28.7005 30.669 30.2156 30.7182C30.5019 30.6966 30.7975 30.3394 30.6505 30.0928Z" fill="#E9E9E9"/>
</svg>
