<svg width="30" height="28" viewBox="0 0 30 28" fill="none" xmlns="http://www.w3.org/2000/svg">
<path d="M26.0311 11.3755V10.4714C26.0311 8.52608 24.4484 6.94344 22.5031 6.94344V8.70741C23.4758 8.70741 24.2671 9.49873 24.2671 10.4714V11.3534H14.8104L14.1886 2.5335H15.8882V0.769531C15.11 0.769531 0.740389 0.769531 0.0124559 0.769531V2.5335H1.71128L0.755442 15.9406C-1.72641 21.0726 2.22677 27.3027 7.95046 27.2291C11.3999 27.2291 14.3421 25.0171 15.4342 21.9372H21.2689C20.7104 24.6777 22.8158 27.2291 25.5901 27.2291C28.0217 27.2291 30 25.2508 30 22.8192V15.7633C30 13.4805 28.2564 11.5974 26.0311 11.3755ZM12.4203 2.5335L13.042 11.3534H7.95034C5.94364 11.3534 4.10876 12.1022 2.70963 13.3347L3.47978 2.5335H12.4203ZM7.95034 25.4652C4.54604 25.4652 1.77643 22.6955 1.77643 19.2913C2.08677 11.1119 13.8151 11.1142 14.1242 19.2913C14.1242 22.6956 11.3547 25.4652 7.95034 25.4652ZM15.8389 20.1732C16.1396 17.4661 15.0452 14.825 12.9335 13.1173H25.5901C27.0491 13.1173 28.236 14.3043 28.236 15.7633V19.2937C26.3071 17.8423 23.5447 18.2059 22.0645 20.1732H15.8389ZM25.5901 25.4652C24.1311 25.4652 22.9441 24.2782 22.9441 22.8192C23.0771 19.3138 28.1036 19.3148 28.236 22.8193C28.236 24.2782 27.0491 25.4652 25.5901 25.4652Z" fill="black"/>
<path d="M7.95079 15.7637C6.00549 15.7637 4.42285 17.3463 4.42285 19.2916C4.60025 23.9655 11.302 23.9642 11.4787 19.2916C11.4787 17.3463 9.8961 15.7637 7.95079 15.7637ZM7.95079 21.0556C6.97814 21.0556 6.18682 20.2643 6.18682 19.2916C6.27549 16.9547 9.62645 16.9553 9.71476 19.2916C9.71476 20.2643 8.92345 21.0556 7.95079 21.0556Z" fill="black"/>
<path d="M10.5261 4.29785H5.37508L4.93408 9.58978H10.9671L10.5261 4.29785ZM6.85117 7.8258L6.99817 6.06183H8.90302L9.05002 7.8258H6.85117Z" fill="black"/>
<path d="M17.6519 15.7637H22.0618V17.5276H17.6519V15.7637Z" fill="black"/>
</svg>
