<svg width="42" height="43" viewBox="0 0 42 43" fill="none" xmlns="http://www.w3.org/2000/svg">
<path d="M12.8468 17.9492L21.0042 9.79511L29.1649 17.9559L33.9088 13.2087L21.0042 0.300781L8.09961 13.2054L12.8468 17.9492Z" fill="black"/>
<path d="M0 21.3022L4.74543 16.5568L9.49086 21.3022L4.74543 26.0477L0 21.3022Z" fill="black"/>
<path d="M12.8466 24.6537L21.004 32.8111L29.1647 24.6504L33.9119 29.3909L33.9086 29.3942L21.004 42.3021L8.09941 29.4009L8.09277 29.3942L12.8466 24.6537Z" fill="black"/>
<path d="M32.5088 21.3032L37.2542 16.5578L41.9996 21.3032L37.2542 26.0487L32.5088 21.3032Z" fill="black"/>
<path d="M25.8173 21.2997L21.0037 16.4829L17.4442 20.0425L17.0328 20.4505L16.1902 21.2931L16.1836 21.2997L16.1902 21.3097L21.0037 26.1199L25.8173 21.3031L25.8206 21.2997H25.8173Z" fill="black"/>
</svg>
