<svg width="30" height="30" viewBox="0 0 30 30" fill="none" xmlns="http://www.w3.org/2000/svg">
<path d="M27.1279 28.2421V14.2328H21.0079V28.2421H19.2501V17.6953H13.13V28.2421H11.3722V21.2109H5.25217V28.2421H1.75781V26.4843H3.54492V24.7265H1.75781V22.9687H3.54492V21.2109H1.75781V19.4531H3.54492V17.6953H1.75781V15.9375H3.54492V14.1796H1.75781V12.2861H0V29.9999H30V28.2421H27.1279ZM22.7657 15.9907H25.3701V28.1249H22.7657V15.9907ZM14.8879 19.4531H17.4923V28.1249H14.8879V19.4531ZM7.00998 22.9687H9.61441V28.1249H7.00998V22.9687Z" fill="#EDAE50"/>
<path d="M6.42383 11.3123H8.18164V9.5666H9.68118V11.3123H11.439V9.41285C12.3567 9.06838 13.0117 8.18221 13.0117 7.14563C13.0117 6.56016 12.8028 6.02268 12.4556 5.60356C12.8028 5.18449 13.0117 4.64695 13.0117 4.06148C13.0117 3.0249 12.3567 2.13873 11.439 1.79426V0H9.68118V1.64063H8.18164V0H6.42383V1.64063H5.25195V9.5666H6.42383V11.3123ZM7.00977 3.39844H10.5907C10.9564 3.39844 11.2538 3.69592 11.2538 4.06154C11.2538 4.42723 10.9564 4.72471 10.5907 4.72471H7.00977V3.39844ZM10.5907 6.48252C10.9564 6.48252 11.2538 6.78 11.2538 7.14563C11.2538 7.51125 10.9564 7.80873 10.5907 7.80873H7.00977V6.48246H10.5907V6.48252Z" fill="#EDAE50"/>
<path d="M24.0609 5.48982V6.69586H25.8187V2.47852H21.6013V4.23633H22.8285L18.0073 9.05754H15.4395V10.8154H18.7354L24.0609 5.48982Z" fill="#EDAE50"/>
</svg>
