<svg width="35" height="40" viewBox="0 0 35 40" fill="none" xmlns="http://www.w3.org/2000/svg">
<path d="M24.1667 32.1875H21.7014L18.75 29.4792V28.0903L21.8056 25.1736V20.5556L25.7986 17.9514L30.3472 21.3889L24.1667 32.1875ZM13.9583 24.8958L14.4097 20.5556L12.9167 16.6667H21.7361L20.2778 20.5556L20.6944 24.8958H17.2917H13.9583ZM15.9722 29.4792L13.0208 32.2222H10.5208L4.30556 21.3889L8.88889 17.9861L12.9167 20.5556V25.1736L15.9722 28.0903V29.4792ZM10.4861 8.64584H24.1319L25.7639 15.5903H8.88889L10.4861 8.64584ZM17.3264 0L0 10V30L17.3264 40L34.6528 30V10L17.3264 0Z" fill="black"/>
</svg>
