<svg width="50" height="50" viewBox="0 0 50 50" fill="none" xmlns="http://www.w3.org/2000/svg">
<g clip-path="url(#clip0_412_101255)">
<path d="M49.9991 27.2059V22.7942H48.5285C44.474 22.7942 41.1757 26.0927 41.1757 30.147V37.4998H29.4112V29.0236L31.7906 24.2648H35.2935V15.4414H14.7056V24.2648H18.2085L20.5879 29.0236V37.4998H8.82337C8.82337 33.8932 8.82337 31.6739 8.82337 30.147C8.82337 26.0927 5.5249 22.7942 1.47056 22.7942H0V27.2059C0 30.7568 2.53015 33.7276 5.88225 34.4108V37.4998H0V40.441H49.9991V37.4998H44.1169V34.4108C47.4689 33.7276 49.9991 30.7568 49.9991 27.2059ZM2.94112 27.2059V25.9873C4.65286 26.5942 5.88225 28.2297 5.88225 30.147V31.3656C4.17042 30.7587 2.94112 29.1232 2.94112 27.2059ZM17.6467 18.3825H32.3524V21.3237H17.6467V18.3825ZM28.5023 24.2648L27.0318 27.2059H22.9672L21.4966 24.2648H28.5023ZM23.529 37.4998V30.147H26.4701V37.4998H23.529ZM44.1169 30.147C44.1169 28.2297 45.3462 26.5943 47.058 25.9873V27.2059C47.058 29.1232 45.8286 30.7587 44.1169 31.3656V30.147Z" fill="black"/>
<path d="M7.35254 18.3823H10.2937V21.3235H7.35254V18.3823Z" fill="black"/>
<path d="M39.7051 18.3823H42.6462V21.3235H39.7051V18.3823Z" fill="black"/>
<path d="M44.1172 12.4995H47.0583V15.4406H44.1172V12.4995Z" fill="black"/>
<path d="M2.94141 12.4995H5.88253V15.4406H2.94141V12.4995Z" fill="black"/>
<path d="M10.2939 9.55859H13.2351V12.4997H10.2939V9.55859Z" fill="black"/>
<path d="M36.7646 9.55859H39.7058V12.4997H36.7646V9.55859Z" fill="black"/>
</g>
<defs>
<clipPath id="clip0_412_101255">
<rect width="49.9991" height="49.9991" fill="white"/>
</clipPath>
</defs>
</svg>
