<svg width="47" height="43" viewBox="0 0 47 43" fill="none" xmlns="http://www.w3.org/2000/svg">
<g clip-path="url(#clip0_280_107308)">
<g clip-path="url(#clip1_280_107308)">
<path d="M34.1131 11.8721L38.5465 14.4657L39.0984 11.0091L27.1247 9.24144L24.3401 29.0242" fill="#6F9935"/>
<path d="M38.7051 13.4697L33.772 10.5837L24.6924 26.5189L24.4815 28.0181L24.8051 28.2074L34.1127 11.8721L38.5461 14.4657L38.7051 13.4697Z" fill="#658B30"/>
<path d="M33.9519 12.1548L30.9417 11.6848L30.8082 11.6655C30.3449 12.6753 29.4114 13.3812 28.3242 13.5437L28.3053 13.6786L26.8997 24.5317L33.9519 12.1548Z" fill="#AAC16B"/>
<path d="M27.2165 22.0909L26.9003 24.5321L33.9525 12.1552L32.9656 12.001L27.2165 22.0909Z" fill="#89B140"/>
<path d="M24.3408 29.0244L34.1138 11.8723L44.5927 18.0026L34.8197 35.1547L24.3408 29.0244Z" fill="#79A73A"/>
<path d="M28.7821 29.4445C29.0357 28.3608 28.7342 27.2205 27.9798 26.4105L33.6993 16.3724C34.7688 16.6296 35.8942 16.324 36.6936 15.5595L40.1516 17.5825C39.8978 18.6662 40.1994 19.8065 40.9539 20.6165L35.3018 30.5361L35.2341 30.6549C34.1648 30.3979 33.0395 30.7033 32.2401 31.4675L28.7821 29.4445Z" fill="#AAC16B"/>
<path d="M36.4814 24.6923C37.1239 23.5646 36.7426 22.1226 35.6297 21.4715C34.5167 20.8204 33.0936 21.2068 32.4511 22.3345C31.8085 23.4623 32.1898 24.9043 33.3028 25.5554C34.4157 26.2065 35.8388 25.8201 36.4814 24.6923Z" fill="#79A73A"/>
<path d="M32.3098 28.2414C32.4383 28.0159 32.362 27.7275 32.1394 27.5972C31.9168 27.467 31.6322 27.5443 31.5037 27.7698C31.3752 27.9954 31.4514 28.2838 31.674 28.414C31.8966 28.5442 32.1812 28.4669 32.3098 28.2414Z" fill="#79A73A"/>
<path d="M37.4289 19.257C37.5574 19.0315 37.4811 18.7431 37.2585 18.6129C37.036 18.4826 36.7513 18.5599 36.6228 18.7855C36.4943 19.011 36.5706 19.2994 36.7932 19.4296C37.0158 19.5598 37.3004 19.4826 37.4289 19.257Z" fill="#79A73A"/>
</g>
<path d="M11.7974 34.9434L2.42382 17.5639L13.0416 11.6841L22.4151 29.0636L11.7974 34.9434Z" fill="#79A73A"/>
<path d="M14.4625 31.3182C13.681 30.5349 12.563 30.2027 11.4879 30.4343L6.00213 20.2632C6.77517 19.4713 7.10301 18.3385 6.8744 17.249L10.3783 15.3087C11.1597 16.092 12.2777 16.4242 13.3529 16.1926L18.7739 26.2437L18.8389 26.3642C18.066 27.1558 17.738 28.2885 17.9664 29.3779L14.4625 31.3182Z" fill="#AAC16B"/>
<path d="M14.4615 22.1833C13.8452 21.0406 12.4314 20.6205 11.3037 21.245C10.176 21.8695 9.76146 23.302 10.3778 24.4447C10.994 25.5874 12.4078 26.0074 13.5355 25.383C14.6632 24.7585 15.0778 23.3259 14.4615 22.1833Z" fill="#79A73A"/>
<path d="M15.2832 27.6382C15.1605 27.4103 14.8777 27.3272 14.6516 27.4527C14.4255 27.5781 14.3417 27.8647 14.4644 28.0926C14.5871 28.3206 14.8698 28.4037 15.0959 28.2782C15.322 28.1527 15.4059 27.8662 15.2832 27.6382Z" fill="#79A73A"/>
<path d="M10.373 18.5347C10.2503 18.3068 9.96758 18.2237 9.74147 18.3492C9.51536 18.4746 9.43153 18.7611 9.55422 18.9891C9.67691 19.2171 9.95966 19.3001 10.1858 19.1747C10.4119 19.0492 10.4957 18.7627 10.373 18.5347Z" fill="#79A73A"/>
<path d="M12.1738 34.4102L15.7012 14.9298L27.6025 17.1424L24.0751 36.6228L12.1738 34.4102Z" fill="#79A73A"/>
<path d="M16.4978 33.2958C16.3779 32.1887 15.7163 31.217 14.7374 30.7104L16.8017 19.3098C17.8944 19.1884 18.8534 18.518 19.3533 17.526L23.2807 18.2562C23.4005 19.3634 24.0621 20.3351 25.0411 20.8416L23.0011 32.1077L22.9766 32.2427C21.8841 32.3641 20.9252 33.0343 20.4252 34.026L16.4978 33.2958Z" fill="#AAC16B"/>
<path d="M22.1775 26.2018C22.4094 24.921 21.5727 23.6922 20.3087 23.4572C19.0447 23.2222 17.832 24.07 17.6001 25.3508C17.3682 26.6316 18.2049 27.8604 19.4689 28.0954C20.7329 28.3304 21.9456 27.4826 22.1775 26.2018Z" fill="#79A73A"/>
<path d="M19.4242 30.9644C19.4701 30.7088 19.302 30.463 19.0487 30.4155C18.7954 30.368 18.5528 30.5368 18.5069 30.7924C18.461 31.0481 18.6292 31.2939 18.8824 31.3414C19.1357 31.3889 19.3783 31.2201 19.4242 30.9644Z" fill="#79A73A"/>
<path d="M21.2723 20.7603C21.3182 20.5047 21.1501 20.2589 20.8968 20.2114C20.6435 20.1639 20.401 20.3327 20.3551 20.5883C20.3092 20.844 20.4773 21.0898 20.7306 21.1373C20.9839 21.1848 21.2264 21.016 21.2723 20.7603Z" fill="#79A73A"/>
<path d="M5.73584 30.9897H41.5649V34.7454H5.73584V30.9897Z" fill="#C5B934"/>
<path d="M9.4421 33.4931H8.20661C8.04277 33.4931 7.88565 33.4272 7.7698 33.3098C7.65395 33.1924 7.58887 33.0332 7.58887 32.8672C7.58887 32.7011 7.65395 32.5419 7.7698 32.4245C7.88565 32.3072 8.04277 32.2412 8.20661 32.2412H9.4421C9.60593 32.2412 9.76306 32.3072 9.87891 32.4245C9.99476 32.5419 10.0598 32.7011 10.0598 32.8672C10.0598 33.0332 9.99476 33.1924 9.87891 33.3098C9.76306 33.4272 9.60593 33.4931 9.4421 33.4931Z" fill="#A39928"/>
<path d="M39.094 33.4931H37.8585C37.6946 33.4931 37.5375 33.4272 37.4217 33.3098C37.3058 33.1924 37.2407 33.0332 37.2407 32.8672C37.2407 32.7011 37.3058 32.5419 37.4217 32.4245C37.5375 32.3072 37.6946 32.2412 37.8585 32.2412H39.094C39.2578 32.2412 39.4149 32.3072 39.5308 32.4245C39.6466 32.5419 39.7117 32.7011 39.7117 32.8672C39.7117 33.0332 39.6466 33.1924 39.5308 33.3098C39.4149 33.4272 39.2578 33.4931 39.094 33.4931Z" fill="#A39928"/>
<path d="M5.73584 34.7451H41.5649V38.5008H5.73584V34.7451Z" fill="#D2C745"/>
<path d="M9.4421 37.249H8.20661C8.04277 37.249 7.88565 37.183 7.7698 37.0656C7.65395 36.9482 7.58887 36.789 7.58887 36.623C7.58887 36.457 7.65395 36.2978 7.7698 36.1804C7.88565 36.063 8.04277 35.9971 8.20661 35.9971H9.4421C9.60593 35.9971 9.76306 36.063 9.87891 36.1804C9.99476 36.2978 10.0598 36.457 10.0598 36.623C10.0598 36.789 9.99476 36.9482 9.87891 37.0656C9.76306 37.183 9.60593 37.249 9.4421 37.249Z" fill="#A39928"/>
<path d="M24.2683 33.4931H23.0328C22.8689 33.4931 22.7118 33.4272 22.596 33.3098C22.4801 33.1924 22.415 33.0332 22.415 32.8672C22.415 32.7011 22.4801 32.5419 22.596 32.4245C22.7118 32.3072 22.8689 32.2412 23.0328 32.2412H24.2683C24.4321 32.2412 24.5892 32.3072 24.7051 32.4245C24.8209 32.5419 24.886 32.7011 24.886 32.8672C24.886 33.0332 24.8209 33.1924 24.7051 33.3098C24.5892 33.4272 24.4321 33.4931 24.2683 33.4931Z" fill="#A39928"/>
<path d="M24.2683 37.249H23.0328C22.8689 37.249 22.7118 37.183 22.596 37.0656C22.4801 36.9482 22.415 36.789 22.415 36.623C22.415 36.457 22.4801 36.2978 22.596 36.1804C22.7118 36.063 22.8689 35.9971 23.0328 35.9971H24.2683C24.4321 35.9971 24.5892 36.063 24.7051 36.1804C24.8209 36.2978 24.886 36.457 24.886 36.623C24.886 36.789 24.8209 36.9482 24.7051 37.0656C24.5892 37.183 24.4321 37.249 24.2683 37.249Z" fill="#A39928"/>
<path d="M39.094 37.249H37.8585C37.6946 37.249 37.5375 37.183 37.4217 37.0656C37.3058 36.9482 37.2407 36.789 37.2407 36.623C37.2407 36.457 37.3058 36.2978 37.4217 36.1804C37.5375 36.063 37.6946 35.9971 37.8585 35.9971H39.094C39.2578 35.9971 39.4149 36.063 39.5308 36.1804C39.6466 36.2978 39.7117 36.457 39.7117 36.623C39.7117 36.789 39.6466 36.9482 39.5308 37.0656C39.4149 37.183 39.2578 37.249 39.094 37.249Z" fill="#A39928"/>
<path d="M5.73584 27.2339H41.5649V30.9896H5.73584V27.2339Z" fill="#D2C745"/>
<path d="M9.4421 29.7377H8.20661C8.04277 29.7377 7.88565 29.6718 7.7698 29.5544C7.65395 29.437 7.58887 29.2778 7.58887 29.1118C7.58887 28.9458 7.65395 28.7866 7.7698 28.6692C7.88565 28.5518 8.04277 28.4858 8.20661 28.4858H9.4421C9.60593 28.4858 9.76306 28.5518 9.87891 28.6692C9.99476 28.7866 10.0598 28.9458 10.0598 29.1118C10.0598 29.2778 9.99476 29.437 9.87891 29.5544C9.76306 29.6718 9.60593 29.7377 9.4421 29.7377Z" fill="#A39928"/>
<path d="M39.094 29.7377H37.8585C37.6946 29.7377 37.5375 29.6718 37.4217 29.5544C37.3058 29.437 37.2407 29.2778 37.2407 29.1118C37.2407 28.9458 37.3058 28.7866 37.4217 28.6692C37.5375 28.5518 37.6946 28.4858 37.8585 28.4858H39.094C39.2578 28.4858 39.4149 28.5518 39.5308 28.6692C39.6466 28.7866 39.7117 28.9458 39.7117 29.1118C39.7117 29.2778 39.6466 29.437 39.5308 29.5544C39.4149 29.6718 39.2578 29.7377 39.094 29.7377Z" fill="#A39928"/>
<path d="M24.2678 29.7377H23.0323C22.8685 29.7377 22.7113 29.6718 22.5955 29.5544C22.4796 29.437 22.4146 29.2778 22.4146 29.1118C22.4146 28.9458 22.4796 28.7866 22.5955 28.6692C22.7113 28.5518 22.8685 28.4858 23.0323 28.4858H24.2678C24.4316 28.4858 24.5887 28.5518 24.7046 28.6692C24.8204 28.7866 24.8855 28.9458 24.8855 29.1118C24.8855 29.2778 24.8204 29.437 24.7046 29.5544C24.5887 29.6718 24.4316 29.7377 24.2678 29.7377Z" fill="#A39928"/>
<path d="M5.73633 38.5005H41.5654V42.2562H5.73633V38.5005Z" fill="#C5B934"/>
<path d="M9.4421 41.0043H8.20661C8.04277 41.0043 7.88565 40.9384 7.7698 40.821C7.65395 40.7036 7.58887 40.5444 7.58887 40.3784C7.58887 40.2124 7.65395 40.0532 7.7698 39.9358C7.88565 39.8184 8.04277 39.7524 8.20661 39.7524H9.4421C9.60593 39.7524 9.76306 39.8184 9.87891 39.9358C9.99476 40.0532 10.0598 40.2124 10.0598 40.3784C10.0598 40.5444 9.99476 40.7036 9.87891 40.821C9.76306 40.9384 9.60593 41.0043 9.4421 41.0043Z" fill="#A39928"/>
<path d="M39.094 41.0043H37.8585C37.6946 41.0043 37.5375 40.9384 37.4217 40.821C37.3058 40.7036 37.2407 40.5444 37.2407 40.3784C37.2407 40.2124 37.3058 40.0532 37.4217 39.9358C37.5375 39.8184 37.6946 39.7524 37.8585 39.7524H39.094C39.2578 39.7524 39.4149 39.8184 39.5308 39.9358C39.6466 40.0532 39.7117 40.2124 39.7117 40.3784C39.7117 40.5444 39.6466 40.7036 39.5308 40.821C39.4149 40.9384 39.2578 41.0043 39.094 41.0043Z" fill="#A39928"/>
<path d="M24.2683 41.0043H23.0328C22.8689 41.0043 22.7118 40.9384 22.596 40.821C22.4801 40.7036 22.415 40.5444 22.415 40.3784C22.415 40.2124 22.4801 40.0532 22.596 39.9358C22.7118 39.8184 22.8689 39.7524 23.0328 39.7524H24.2683C24.4321 39.7524 24.5892 39.8184 24.7051 39.9358C24.8209 40.0532 24.886 40.2124 24.886 40.3784C24.886 40.5444 24.8209 40.7036 24.7051 40.821C24.5892 40.9384 24.4321 41.0043 24.2683 41.0043Z" fill="#A39928"/>
</g>
<defs>
<clipPath id="clip0_280_107308">
<rect width="45.8612" height="42.4641" fill="white" transform="translate(0.720215 0.318359)"/>
</clipPath>
<clipPath id="clip1_280_107308">
<rect width="23.0034" height="22.8522" fill="white" transform="matrix(0.495062 -0.868858 0.863146 0.504954 16.5347 24.4575)"/>
</clipPath>
</defs>
</svg>
