<svg width="54" height="50" viewBox="0 0 54 50" fill="none" xmlns="http://www.w3.org/2000/svg">
<path d="M26.9899 0C12.0856 0 0 9.5611 0 21.3599C0 28.9884 5.04919 35.671 12.6534 39.465L9.91588 49.2803C9.91588 49.2803 9.86519 49.7381 10.1592 49.911C10.4532 50.0839 10.8081 49.9517 10.8081 49.9517C11.6598 49.8296 20.6429 43.4928 22.2144 42.3943C23.7657 42.6181 25.3778 42.73 27.0101 42.73C41.9144 42.73 54 33.1689 54 21.3701C54 9.57127 41.8941 0 26.9899 0Z" fill="black"/>
<path d="M12.0654 28.8061C11.2036 28.8061 10.504 28.1348 10.504 27.311V18.0245H8.07065C7.22911 18.0245 6.5498 17.343 6.5498 16.4988C6.5498 15.6545 7.23925 14.9731 8.07065 14.9731H16.05C16.8915 14.9731 17.5708 15.6545 17.5708 16.4988C17.5708 17.343 16.8814 18.0245 16.05 18.0245H13.6166V27.311C13.6166 28.1247 12.9069 28.8061 12.0552 28.8061H12.0654ZM25.7225 28.7858C25.0736 28.7858 24.5768 28.5213 24.4248 28.0941L23.6542 26.0599H18.9092L18.1386 28.0941C17.9865 28.5213 17.4897 28.7858 16.8408 28.7858C16.4961 28.7858 16.1615 28.7146 15.8472 28.5824C15.4214 28.3789 15.0057 27.8399 15.4822 26.365L19.2032 16.5293C19.4668 15.7766 20.2678 15.0036 21.2817 14.9832C22.2956 14.9629 23.1067 15.7766 23.3602 16.5293L27.0812 26.365C27.5577 27.8399 27.142 28.3993 26.7162 28.5824C26.412 28.7248 26.0673 28.7858 25.7225 28.7858ZM22.8329 23.2933L21.2817 18.8585L19.7304 23.2933H22.8329ZM29.5855 28.5824C28.7744 28.5824 28.0951 27.9416 28.0951 27.1584V16.5293C28.0951 15.6647 28.8048 14.9629 29.6869 14.9629C30.569 14.9629 31.2787 15.6749 31.2787 16.5293V25.7039H34.584C35.3951 25.7039 36.0744 26.3447 36.0744 27.1279C36.0744 27.9111 35.4052 28.5519 34.584 28.5519L29.5855 28.5824ZM38.234 28.7858C37.3722 28.7858 36.6726 28.0738 36.6726 27.2194V16.5395C36.6726 15.6749 37.3823 14.9731 38.234 14.9731C39.0857 14.9731 39.7954 15.6851 39.7954 16.5395V19.896L44.1551 15.5223C44.3782 15.2985 44.6824 15.1765 45.0169 15.1765C45.4022 15.1765 45.7976 15.3392 46.0917 15.6342C46.3857 15.9292 46.5276 16.2445 46.5479 16.6208C46.5623 16.7957 46.539 16.9716 46.4795 17.1366C46.42 17.3016 46.3258 17.4518 46.2032 17.5769L42.6343 21.1369L46.4668 26.2226C46.7203 26.5481 46.8217 26.9651 46.771 27.3821C46.7203 27.7992 46.4972 28.1653 46.1626 28.3993C45.8889 28.6027 45.5543 28.7044 45.2299 28.7044C44.7432 28.7044 44.2768 28.4807 43.9828 28.0941L40.3328 23.2424L39.7954 23.7815V27.1889C39.7954 28.0535 39.0857 28.7451 38.234 28.7553V28.7858Z" fill="#FFE812"/>
</svg>
