<svg width="30" height="30" viewBox="0 0 30 30" fill="none" xmlns="http://www.w3.org/2000/svg">
<path d="M28.0907 10.747L27.1359 6.18256L23.0886 3.86664L19.6364 0.730469L15 1.23953L10.3636 0.730469L6.91137 3.86664L2.86406 6.18256L1.90922 10.747L0 15.0005L1.90928 19.254L2.86406 23.8184L6.91137 26.1343L10.3636 29.2704L15 28.7614L19.6364 29.2704L23.0886 26.1343L27.1359 23.8184L28.0908 19.254L30 15.0005L28.0907 10.747ZM26.4253 18.713L25.5921 22.6959L22.0588 24.7177L19.0465 27.4543L15 27.01L10.9535 27.4543L7.94115 24.7177L4.40795 22.6959L3.5748 18.713L1.90834 15.0005L3.57475 11.288L4.40795 7.30498L7.94115 5.28321L10.9535 2.54664L15 2.99096L19.0465 2.54664L22.0588 5.28321L25.5921 7.30498L26.4253 11.2879L28.0917 15.0005L26.4253 18.713Z" fill="#EDAE50"/>
<path d="M14.9998 4.83105C9.39218 4.83105 4.83008 9.39316 4.83008 15.0008C4.83008 20.6083 9.39218 25.1704 14.9998 25.1704C20.6074 25.1704 25.1695 20.6083 25.1695 15.0008C25.1695 9.39316 20.6074 4.83105 14.9998 4.83105ZM14.9998 23.4295C10.3522 23.4295 6.57107 19.6484 6.57107 15.0008C6.57107 10.3532 10.3522 6.57205 14.9998 6.57205C19.6474 6.57205 23.4285 10.3532 23.4285 15.0008C23.4285 19.6484 19.6474 23.4295 14.9998 23.4295Z" fill="#EDAE50"/>
<path d="M10.5858 10.5264L8.21729 15.0277L15.0003 21.1986L21.7833 15.0277L19.4148 10.5264H10.5858ZM13.0857 13.9666H10.7429L11.614 12.311L13.0857 13.9666ZM13.9045 12.2673H16.1161L15.0191 13.521L13.9045 12.2673ZM14.1298 15.7075V18.053L11.5516 15.7075H14.1298ZM15.8707 15.7075H18.4489L15.8707 18.053V15.7075ZM16.9427 13.9666L18.3884 12.3144L19.2577 13.9666H16.9427Z" fill="#EDAE50"/>
</svg>
