<svg width="30" height="30" viewBox="0 0 30 30" fill="none" xmlns="http://www.w3.org/2000/svg">
<g clip-path="url(#clip0_280_102652)">
<path d="M26.0311 12.3755V11.4714C26.0311 9.52608 24.4484 7.94344 22.5031 7.94344V9.70741C23.4758 9.70741 24.2671 10.4987 24.2671 11.4714V12.3534H14.8104L14.1886 3.5335H15.8882V1.76953C15.11 1.76953 0.740389 1.76953 0.0124559 1.76953V3.5335H1.71128L0.755442 16.9406C-1.72641 22.0726 2.22677 28.3027 7.95046 28.2291C11.3999 28.2291 14.3421 26.0171 15.4342 22.9372H21.2689C20.7104 25.6777 22.8158 28.2291 25.5901 28.2291C28.0217 28.2291 30 26.2508 30 23.8192V16.7633C30 14.4805 28.2564 12.5974 26.0311 12.3755ZM12.4203 3.5335L13.042 12.3534H7.95034C5.94364 12.3534 4.10876 13.1022 2.70963 14.3347L3.47978 3.5335H12.4203ZM7.95034 26.4652C4.54604 26.4652 1.77643 23.6955 1.77643 20.2913C2.08677 12.1119 13.8151 12.1142 14.1242 20.2913C14.1242 23.6956 11.3547 26.4652 7.95034 26.4652ZM15.8389 21.1732C16.1396 18.4661 15.0452 15.825 12.9335 14.1173H25.5901C27.0491 14.1173 28.236 15.3043 28.236 16.7633V20.2937C26.3071 18.8423 23.5447 19.2059 22.0645 21.1732H15.8389ZM25.5901 26.4652C24.1311 26.4652 22.9441 25.2782 22.9441 23.8192C23.0771 20.3138 28.1036 20.3148 28.236 23.8193C28.236 25.2782 27.0491 26.4652 25.5901 26.4652Z" fill="black"/>
<path d="M7.95079 16.7637C6.00549 16.7637 4.42285 18.3463 4.42285 20.2916C4.60025 24.9655 11.302 24.9642 11.4787 20.2916C11.4787 18.3463 9.8961 16.7637 7.95079 16.7637ZM7.95079 22.0556C6.97814 22.0556 6.18682 21.2643 6.18682 20.2916C6.27549 17.9547 9.62645 17.9553 9.71476 20.2916C9.71476 21.2643 8.92345 22.0556 7.95079 22.0556Z" fill="black"/>
<path d="M10.5261 5.29785H5.37508L4.93408 10.5898H10.9671L10.5261 5.29785ZM6.85117 8.8258L6.99817 7.06183H8.90302L9.05002 8.8258H6.85117Z" fill="black"/>
<path d="M17.6519 16.7637H22.0618V18.5276H17.6519V16.7637Z" fill="black"/>
</g>
<defs>
<clipPath id="clip0_280_102652">
<rect width="30" height="30" fill="white"/>
</clipPath>
</defs>
</svg>
