<svg width="74" height="74" viewBox="0 0 74 74" fill="none" xmlns="http://www.w3.org/2000/svg">
<path d="M72.7667 37C72.7667 56.8231 56.8231 72.7667 37 72.7667C17.1769 72.7667 1.23333 56.8231 1.23333 37C1.23333 17.1769 17.1769 1.23333 37 1.23333C56.8231 1.23333 72.7667 17.1769 72.7667 37Z" fill="#6F41D8" stroke="#F6F6F6" stroke-width="2.46667"/>
<path d="M47.4664 31.2292C46.7079 30.7872 45.7233 30.7872 44.8887 31.2292L38.9708 34.6291L34.9522 36.845L29.0342 40.2428C28.2757 40.6868 27.2911 40.6868 26.4566 40.2428L21.7535 37.5829C20.995 37.141 20.4646 36.329 20.4646 35.441V30.1952C20.4646 29.3093 20.9189 28.4974 21.7535 28.0534L26.3785 25.4675C27.139 25.0235 28.1257 25.0235 28.9602 25.4675L33.5852 28.0534C34.3458 28.4974 34.8761 29.3093 34.8761 30.1952V33.5951L38.8947 31.3032V27.9054C38.8992 27.464 38.7811 27.0301 38.5535 26.652C38.326 26.2738 37.9979 25.9662 37.6059 25.7635L29.0342 20.8877C28.2757 20.4437 27.2911 20.4437 26.4566 20.8877L17.7328 25.7635C17.3408 25.9662 17.0128 26.2738 16.7852 26.652C16.5577 27.0301 16.4395 27.464 16.444 27.9054V37.7309C16.444 38.6189 16.8982 39.4309 17.7328 39.8749L26.4566 44.7506C27.2151 45.1926 28.2017 45.1926 29.0342 44.7506L34.9522 41.4247L38.9708 39.1349L44.8887 35.811C45.6472 35.367 46.6319 35.367 47.4664 35.811L52.0935 38.3969C52.854 38.8389 53.3823 39.6508 53.3823 40.5388V45.7846C53.3823 46.6705 52.9301 47.4825 52.0935 47.9265L47.4685 50.5864C46.7079 51.0304 45.7212 51.0304 44.8887 50.5864L40.2617 48.0005C39.5011 47.5565 38.9708 46.7445 38.9708 45.8586V42.4587L34.9522 44.7506V48.1485C34.9522 49.0344 35.4065 49.8484 36.241 50.2904L44.9648 55.1661C45.7233 55.6101 46.7079 55.6101 47.5425 55.1661L56.2662 50.2904C57.0247 49.8484 57.5551 49.0365 57.5551 48.1485V38.3229C57.5595 37.8816 57.4414 37.4477 57.2138 37.0695C56.9863 36.6914 56.6583 36.3838 56.2662 36.181L47.4685 31.2292H47.4664Z" fill="white"/>
</svg>
