<svg width="74" height="74" viewBox="0 0 74 74" fill="none" xmlns="http://www.w3.org/2000/svg">
<path d="M72.7667 37C72.7667 56.8231 56.8231 72.7667 37 72.7667C17.1769 72.7667 1.23333 56.8231 1.23333 37C1.23333 17.1769 17.1769 1.23333 37 1.23333C56.8231 1.23333 72.7667 17.1769 72.7667 37Z" fill="#F6F6F6" stroke="#F6F6F6" stroke-width="2.46667"/>
<g clip-path="url(#clip0_280_95308)">
<path d="M37.0001 71.9436C56.2994 71.9436 71.9445 56.2984 71.9445 36.9991C71.9445 17.6998 56.2994 2.05469 37.0001 2.05469C17.7008 2.05469 2.05566 17.6998 2.05566 36.9991C2.05566 56.2984 17.7008 71.9436 37.0001 71.9436Z" fill="#FF007A"/>
<path d="M28.8328 14.6513C28.2104 14.5552 28.1842 14.5421 28.4769 14.4985C29.0381 14.4111 30.366 14.5312 31.2811 14.7474C33.4149 15.2563 35.3565 16.5558 37.4314 18.8643L37.9817 19.4759L38.768 19.3514C42.0877 18.8163 45.4664 19.2422 48.2904 20.546C49.0679 20.9042 50.2931 21.6184 50.446 21.804C50.4962 21.8608 50.5858 22.2386 50.6447 22.6405C50.8544 24.0317 50.7496 25.0975 50.3259 25.8947C50.0944 26.3271 50.0813 26.4626 50.2363 26.8338C50.3099 26.9872 50.4251 27.1168 50.5687 27.2079C50.7124 27.2991 50.8787 27.348 51.0488 27.3493C51.752 27.3493 52.5077 26.2136 52.8572 24.6345L52.9969 24.0077L53.2721 24.32C54.7835 26.0323 55.9694 28.367 56.1725 30.0269L56.2271 30.4615L55.9716 30.0684C55.5348 29.3913 55.098 28.9283 54.5345 28.5549C53.5211 27.8844 52.4487 27.6572 49.6095 27.5065C47.0455 27.3711 45.5931 27.1527 44.156 26.6831C41.7077 25.886 40.4737 24.8224 37.5646 21.0069C36.2738 19.3121 35.4745 18.3751 34.6817 17.6216C32.8755 15.905 31.1021 15.0051 28.8328 14.6513Z" fill="#F6F6F6"/>
<path d="M51.0255 18.4351C51.091 17.2994 51.2439 16.5502 51.554 15.8666C51.6763 15.5958 51.792 15.373 51.8095 15.373C51.7901 15.5264 51.7496 15.6763 51.6894 15.8186C51.4644 16.4825 51.4273 17.3911 51.5824 18.446C51.7789 19.787 51.8925 19.9792 53.3078 21.4272C53.9739 22.1064 54.747 22.9625 55.0266 23.3316L55.5355 24L55.0266 23.5217C54.4041 22.9385 52.9714 21.7963 52.6547 21.6347C52.4429 21.5255 52.4101 21.5276 52.2791 21.6565C52.159 21.7788 52.1328 21.9579 52.1175 22.8118C52.0913 24.1397 51.91 24.9959 51.471 25.8476C51.2351 26.3063 51.198 26.2102 51.412 25.6882C51.5715 25.2995 51.5868 25.1291 51.5868 23.8427C51.5868 21.2568 51.2788 20.6366 49.477 19.5707C48.9348 19.2562 48.378 18.9675 47.8084 18.7059C47.527 18.593 47.254 18.4602 46.9916 18.3084C47.0418 18.2581 48.7977 18.7692 49.5032 19.0422C50.5559 19.4463 50.7284 19.4987 50.8573 19.4484C50.9425 19.4157 50.984 19.1667 51.0255 18.4351ZM30.0435 22.8577C28.779 21.117 27.9971 18.446 28.1652 16.4498L28.2177 15.8317L28.5059 15.8841C29.0476 15.9824 29.9802 16.3297 30.417 16.5961C31.6138 17.3234 32.1336 18.2822 32.66 20.7414C32.815 21.4621 33.0181 22.2768 33.1121 22.5541C33.2606 22.9975 33.8284 24.0349 34.2914 24.7098C34.6234 25.1946 34.4006 25.4239 33.6668 25.3584C32.5442 25.2558 31.0241 24.2074 30.0435 22.8577ZM49.4923 35.8199C43.5801 33.4393 41.4987 31.3732 41.4987 27.8875C41.4987 27.3743 41.5162 26.9549 41.5359 26.9549C41.5577 26.9549 41.787 27.1231 42.0447 27.3306C43.2438 28.2916 44.5869 28.7022 48.302 29.2438C50.4882 29.5649 51.72 29.8226 52.8557 30.1982C56.4637 31.3951 58.6958 33.8237 59.2287 37.1303C59.3815 38.0913 59.292 39.8931 59.0408 40.8432C58.8443 41.5945 58.2393 42.9464 58.0799 42.9988C58.0362 43.0119 57.9925 42.8437 57.9794 42.6101C57.9182 41.3695 57.2914 40.1596 56.2365 39.2532C55.0375 38.2245 53.4279 37.4033 49.4901 35.8199H49.4923ZM45.3426 36.8071C45.2728 36.3852 45.1772 35.968 45.0565 35.5578L44.9036 35.1079L45.1854 35.4224C45.5719 35.8592 45.8799 36.414 46.1376 37.1565C46.3363 37.7222 46.3582 37.8904 46.356 38.8098C46.356 39.714 46.332 39.9019 46.1485 40.4129C45.8934 41.1623 45.4663 41.8415 44.9014 42.396C43.8203 43.4968 42.4335 44.1039 40.4286 44.3573C40.0791 44.401 39.0657 44.4752 38.1725 44.5211C35.9229 44.639 34.4443 44.8793 33.1142 45.3466C32.9943 45.4004 32.8655 45.4315 32.7342 45.4384C32.6818 45.3838 33.586 44.8443 34.3351 44.4839C35.39 43.9751 36.4383 43.6977 38.7905 43.3068C39.9524 43.1124 41.1537 42.8787 41.4572 42.7848C44.3358 41.9024 45.8144 39.6267 45.3404 36.8071H45.3426Z" fill="#F6F6F6"/>
<path d="M48.0509 41.621C47.2647 39.9327 47.0856 38.3013 47.5158 36.7812C47.5617 36.6196 47.6359 36.4863 47.6796 36.4863C47.8274 36.5398 47.9665 36.6149 48.0924 36.7091C48.455 36.9537 49.18 37.3643 51.1129 38.417C53.5263 39.734 54.9022 40.7539 55.8391 41.9158C56.6582 42.9358 57.1649 44.0977 57.4095 45.5129C57.5471 46.3145 57.4663 48.2429 57.261 49.051C56.6123 51.5976 55.1031 53.5982 52.9541 54.7645C52.7512 54.8818 52.5411 54.9861 52.3251 55.0768C52.2945 55.0768 52.408 54.7863 52.5806 54.4281C53.3013 52.9168 53.3865 51.4447 52.8383 49.8067C52.5041 48.8042 51.8205 47.579 50.4424 45.5129C48.8393 43.1105 48.4462 42.4684 48.0509 41.621ZM25.8459 50.7306C28.0408 48.8785 30.7687 47.5637 33.2563 47.1597C34.3265 46.985 36.113 47.0548 37.1046 47.3082C38.6945 47.7144 40.1185 48.6273 40.8589 49.7128C41.5796 50.7742 41.8919 51.7003 42.213 53.7576C42.344 54.5701 42.4816 55.3847 42.5231 55.5704C42.7634 56.6362 43.2373 57.4901 43.8226 57.9182C44.7508 58.5974 46.3517 58.6389 47.9242 58.0274C48.0885 57.952 48.2617 57.8977 48.4397 57.8658C48.4965 57.9226 47.7058 58.4533 47.1467 58.7328C46.4869 59.0859 45.748 59.2648 44.9998 59.2526C43.5584 59.2526 42.3615 58.521 41.3634 57.0249C41.1669 56.7301 40.7257 55.8499 40.3806 55.0659C39.3279 52.6634 38.8081 51.9296 37.585 51.128C36.5171 50.4292 35.1433 50.3047 34.1103 50.8114C32.7518 51.4775 32.374 53.2138 33.3458 54.3124C33.7324 54.7492 34.4531 55.127 35.0428 55.1991C35.3001 55.2332 35.5616 55.2116 35.8098 55.1359C36.058 55.0602 36.2871 54.9321 36.4815 54.7603C36.6759 54.5884 36.8312 54.3768 36.9368 54.1398C37.0424 53.9028 37.0959 53.6458 37.0936 53.3863C37.0936 52.6612 36.8141 52.2506 36.1152 51.934C35.1608 51.5037 34.1343 52.006 34.1386 52.9037C34.1408 53.2859 34.3068 53.5261 34.6912 53.7008C34.938 53.81 34.9424 53.821 34.7414 53.7795C33.8656 53.596 33.6603 52.5411 34.3658 51.84C35.211 50.997 36.9604 51.3683 37.561 52.5171C37.8144 52.9998 37.8428 53.9629 37.6222 54.5439C37.1308 55.8434 35.6937 56.5248 34.2369 56.1535C33.2454 55.9002 32.8413 55.6271 31.6467 54.3954C29.5697 52.255 28.7638 51.84 25.7673 51.3727L25.1929 51.2831L25.8481 50.7306H25.8459Z" fill="#F6F6F6"/>
<path fill-rule="evenodd" clip-rule="evenodd" d="M15.5874 9.37185L15.7971 9.62738C23.8954 19.5429 28.08 24.6884 28.3465 25.0554C28.7833 25.6625 28.6195 26.2063 27.8682 26.6344C27.451 26.8725 26.5905 27.1127 26.1625 27.1127C25.6754 27.1127 25.1272 26.879 24.7276 26.5012C24.4458 26.2325 23.3079 24.5334 20.6806 20.4558C19.4502 18.5286 18.2038 16.6117 16.9415 14.7052C16.8345 14.6048 16.8367 14.607 20.4753 21.1176C22.7597 25.2061 23.5329 26.6497 23.5329 26.8441C23.5329 27.2372 23.4237 27.4425 22.9388 27.9841C22.1307 28.8861 21.7704 29.8995 21.5083 31.9962C21.2156 34.3484 20.3944 36.0083 18.1143 38.8497C16.7821 40.5139 16.5637 40.8197 16.2251 41.4902C15.8014 42.3332 15.6857 42.8071 15.6376 43.8729C15.5874 44.9999 15.6857 45.7294 16.0308 46.8061C16.3322 47.7496 16.6467 48.3742 17.4504 49.6191C18.1449 50.6958 18.5446 51.4952 18.5446 51.8075C18.5446 52.0565 18.5926 52.0565 19.6693 51.8141C22.2443 51.2331 24.3344 50.2088 25.5116 48.9552C26.2389 48.1798 26.4093 47.7518 26.4158 46.6881C26.418 45.9936 26.394 45.8473 26.2061 45.4476C25.9004 44.7968 25.3435 44.2551 24.116 43.4165C22.5064 42.3157 21.8206 41.429 21.6306 40.2125C21.4734 39.2144 21.6546 38.509 22.5457 36.6438C23.4652 34.7131 23.6945 33.8919 23.8496 31.946C23.9479 30.688 24.0855 30.1922 24.448 29.7947C24.8237 29.3797 25.1644 29.2378 26.0969 29.1111C27.617 28.9036 28.5845 28.5105 29.3795 27.7788C30.0697 27.1411 30.358 26.5274 30.4017 25.6057L30.4366 24.9068L30.05 24.4569C29.4953 23.8105 24.9066 18.7479 16.2819 9.26484L16.0504 9.01367L15.5874 9.37404V9.37185ZM19.3308 45.1506C19.4832 44.8808 19.5287 44.5636 19.4583 44.2619C19.3879 43.9602 19.2068 43.6958 18.9508 43.5213C18.4528 43.1893 17.6775 43.3466 17.6775 43.779C17.6775 43.9101 17.7496 44.0062 17.9134 44.0913C18.1908 44.2333 18.2104 44.3949 17.9942 44.7203C17.7736 45.0523 17.7911 45.345 18.0444 45.5437C18.4507 45.8626 19.0272 45.6857 19.333 45.1506H19.3308ZM31.3954 29.478C30.6812 29.6964 29.9889 30.4543 29.7727 31.2471C29.6416 31.7297 29.7159 32.5793 29.9124 32.8414C30.2291 33.2651 30.5371 33.3765 31.367 33.3699C32.9919 33.359 34.4028 32.6623 34.5688 31.7909C34.7042 31.0767 34.0817 30.0874 33.2278 29.6506C32.7866 29.4278 31.8497 29.3382 31.3954 29.478ZM33.2955 30.9632C33.5467 30.6072 33.4353 30.2206 33.0116 29.9629C32.1991 29.4671 30.9717 29.8755 30.9717 30.6443C30.9717 31.0243 31.6116 31.4415 32.1969 31.4415C32.5901 31.4415 33.123 31.2078 33.2955 30.9632Z" fill="#F6F6F6"/>
</g>
<defs>
<clipPath id="clip0_280_95308">
<rect width="69.8889" height="69.8889" fill="white" transform="translate(2.05615 2.05469)"/>
</clipPath>
</defs>
</svg>
