<svg width="216" height="40" viewBox="0 0 216 40" fill="none" xmlns="http://www.w3.org/2000/svg">
<path d="M0 0H15.8355C18.8518 0 21.114 0.756303 22.7898 2.01681C24.633 3.52941 25.6385 5.71429 25.6385 8.40336C25.6385 11.5126 24.3817 13.4454 21.8681 14.6219V14.7899C25.2196 15.8824 27.1466 18.9076 27.1466 22.521C27.1466 25.9664 25.8061 28.6555 23.6276 30.3361C21.7843 31.6807 19.4383 32.2689 16.2545 32.2689H0V0ZM14.2436 12.605C15.9193 12.605 17.1761 11.6807 17.1761 9.7479C17.1761 7.89916 15.9193 6.97479 14.1598 6.97479H8.71373V12.521H14.2436V12.605ZM14.9977 25.1261C16.9247 25.1261 18.3491 23.9496 18.3491 21.8487C18.3491 19.5798 16.841 18.5714 14.9977 18.5714H8.79752V25.2101H14.9977V25.1261Z" fill="#C4C9CA"/>
<path d="M28.5708 0H36.8656V32.3529H28.5708V0Z" fill="#C4C9CA"/>
<path d="M38.5415 20.8401C38.5415 13.5292 43.2335 8.65527 50.5229 8.65527C57.8123 8.65527 62.4205 13.6133 62.4205 20.8401C62.4205 28.1511 57.8123 33.025 50.5229 33.025C43.2335 33.025 38.5415 28.1511 38.5415 20.8401ZM54.1257 20.8401C54.1257 16.8065 52.8689 14.2855 50.3553 14.2855C47.8417 14.2855 46.6687 16.8065 46.6687 20.8401C46.6687 24.8738 47.8417 27.4788 50.3553 27.4788C52.8689 27.3948 54.1257 24.8738 54.1257 20.8401Z" fill="#C4C9CA"/>
<path d="M63.3423 20.8401C63.3423 13.5292 68.0343 8.65527 75.3237 8.65527C82.613 8.65527 87.1375 13.5292 87.1375 20.8401C87.1375 28.1511 82.5292 33.025 75.2399 33.025C68.0343 33.025 63.3423 28.1511 63.3423 20.8401ZM78.9264 20.8401C78.9264 16.8065 77.6697 14.2855 75.1561 14.2855C72.6425 14.2855 71.4695 16.8065 71.4695 20.8401C71.4695 24.8738 72.6425 27.4788 75.1561 27.4788C77.6697 27.3948 78.9264 24.8738 78.9264 20.8401Z" fill="#C4C9CA"/>
<path d="M88.813 9.24356H96.5213V12.6889H96.6889C98.197 9.99986 100.292 8.57129 103.643 8.57129C106.576 8.57129 108.754 9.99986 109.843 12.5209H110.011C111.854 9.49566 114.284 8.57129 117.133 8.57129C122.495 8.57129 124.757 12.5209 124.757 17.815V32.2688H116.714V19.2436C116.714 16.8906 115.96 15.378 113.949 15.378C111.938 15.378 110.932 17.2268 110.932 19.7478V32.2688H102.889V19.2436C102.889 16.8906 102.135 15.378 100.124 15.378C98.1132 15.378 97.1078 17.2268 97.1078 19.7478V32.2688H88.813C88.813 32.2688 88.813 9.24356 88.813 9.24356Z" fill="#C4C9CA"/>
<path d="M134.895 29.2437H134.811V32.2689H127.103V0H135.146V11.5966H135.314C136.822 9.57983 138.917 8.4874 141.849 8.4874C147.631 8.4874 150.982 13.6975 150.982 20.6723C150.982 28.4874 147.379 33.0252 141.347 33.0252C138.833 33.0252 136.236 31.8487 134.895 29.2437ZM142.687 20.5882C142.687 16.8908 141.347 14.4538 138.917 14.4538C136.403 14.4538 134.895 16.8908 134.895 20.5882C134.895 24.2857 136.487 26.7227 138.917 26.7227C141.347 26.7227 142.687 24.3697 142.687 20.5882Z" fill="#C4C9CA"/>
<path d="M151.904 20.7562C151.904 13.5293 156.68 8.57129 163.55 8.57129C166.985 8.57129 169.583 9.66373 171.593 11.5965C174.275 14.2015 175.448 18.2352 175.364 22.941H159.947C160.282 25.7982 161.623 27.3108 164.053 27.3108C165.477 27.3108 166.734 26.6385 167.237 25.1259H175.029C173.688 30.42 169.583 33.0251 163.801 33.0251C156.68 32.941 151.904 28.0671 151.904 20.7562ZM159.947 18.3192H167.32C167.153 15.5461 165.645 14.1175 163.718 14.1175C161.455 14.0335 160.199 15.6301 159.947 18.3192Z" fill="#C4C9CA"/>
<path d="M184.496 13.193H184.664C186.34 9.99976 188.518 8.73926 191.283 8.73926C191.953 8.73926 192.372 8.82329 192.624 8.99136V16.0502H192.456C187.68 15.2098 184.915 17.4788 184.915 22.6888V32.3527H176.788V9.24346H184.496V13.193Z" fill="#C4C9CA"/>
<path d="M193.461 32.3528H201.254C201.589 33.3613 202.594 34.2856 204.521 34.2856C207.119 34.2856 208.04 32.689 208.04 30.252V28.5713H207.873C206.616 30.0839 204.856 31.1764 202.343 31.1764C197.399 31.1764 193.042 27.4789 193.042 20.252C193.042 13.6134 196.561 8.4873 201.924 8.4873C205.024 8.4873 206.867 9.74781 208.124 11.6806H208.292V9.15957H216V29.1596C216 32.8571 214.743 35.7142 212.816 37.3949C210.805 39.1596 207.956 39.9159 204.689 39.9159C198.489 39.9999 194.215 37.4789 193.461 32.3528ZM208.375 19.9159C208.375 17.0587 207.035 14.7058 204.689 14.7058C202.426 14.7058 201.002 16.7226 201.002 19.9159C201.002 23.0251 202.426 25.21 204.689 25.21C206.951 25.21 208.375 22.9411 208.375 19.9159Z" fill="#C4C9CA"/>
</svg>
