<svg width="50" height="54" viewBox="0 0 50 54" fill="none" xmlns="http://www.w3.org/2000/svg">
<path d="M6.055 47.691H38.1378L36.6055 42.7297C36.8328 42.9277 49.75 54 49.75 54V5.56875C49.597 2.55825 47.005 0 43.792 0L6.06625 0.00675C2.8555 0.00675 0.25 2.5695 0.25 5.58V42.12C0.25 45.2948 2.851 47.691 6.055 47.691ZM29.788 12.7867L29.7138 12.8138L29.7408 12.7867H29.788ZM12.6183 15.642C16.7425 12.6405 20.5653 12.7845 20.5653 12.7845L20.8735 13.0883C15.8268 14.292 13.5385 16.5465 13.5385 16.5465C13.7725 16.497 23.9628 10.6178 36.3108 16.695C36.3108 16.695 34.018 14.5868 29.2817 13.2367L29.7002 12.825C30.355 12.8272 33.82 12.9487 37.528 15.66C37.528 15.66 41.677 22.7475 41.677 31.455C41.5398 31.2885 39.103 35.2035 32.8322 35.3385C32.8322 35.3385 31.7703 34.137 31.0143 33.0885C34.6818 32.0355 36.0542 29.9295 36.0542 29.9295C28.915 34.425 22.6577 33.723 15.172 30.6855C15.1023 30.6855 15.0708 30.654 15.0347 30.618V30.6045C14.9988 30.5708 14.9673 30.537 14.8975 30.537H14.7625C14.3035 30.2355 13.9975 30.087 13.9975 30.087C13.9975 30.087 15.3678 32.193 18.889 33.246C17.9643 34.3013 17.0485 35.5005 17.0485 35.5005C10.78 35.352 8.494 31.437 8.494 31.437C8.494 22.716 12.6183 15.642 12.6183 15.642Z" fill="#5561F5"/>
<path d="M30.1935 28.7346C31.7933 28.7346 33.096 27.3846 33.096 25.7196C33.096 24.0658 31.8 22.7158 30.1935 22.7158V22.7226C28.6005 22.7226 27.2955 24.0681 27.291 25.7331C27.291 27.3846 28.5938 28.7346 30.1935 28.7346Z" fill="#5561F5"/>
<path d="M19.8029 28.7346C21.4026 28.7346 22.7054 27.3846 22.7054 25.7196C22.7054 24.0658 21.4116 22.7158 19.8119 22.7158L19.8029 22.7226C18.2031 22.7226 16.9004 24.0681 16.9004 25.7331C16.9004 27.3846 18.2031 28.7346 19.8029 28.7346Z" fill="#5561F5"/>
</svg>
