<svg width="30" height="30" viewBox="0 0 30 30" fill="none" xmlns="http://www.w3.org/2000/svg">
<g clip-path="url(#clip0_280_102388)">
<path d="M7.03125 13.2422C3.15422 13.2422 0 16.3964 0 20.2734C0 24.1505 3.15422 27.3047 7.03125 27.3047C10.9083 27.3047 14.0625 24.1505 14.0625 20.2734C14.0625 16.3964 10.9083 13.2422 7.03125 13.2422ZM7.03125 25.5469C4.12354 25.5469 1.75781 23.1812 1.75781 20.2734C1.75781 17.3657 4.12354 15 7.03125 15C9.93896 15 12.3047 17.3657 12.3047 20.2734C12.3047 23.1812 9.93896 25.5469 7.03125 25.5469Z" fill="#EDAE50"/>
<path d="M7.03125 17.6367C5.57739 17.6367 4.39453 18.8196 4.39453 20.2734C4.39453 21.7273 5.57739 22.9102 7.03125 22.9102C8.48511 22.9102 9.66797 21.7273 9.66797 20.2734C9.66797 18.8196 8.48511 17.6367 7.03125 17.6367ZM7.03125 21.1523C6.54671 21.1523 6.15234 20.758 6.15234 20.2734C6.15234 19.7889 6.54671 19.3945 7.03125 19.3945C7.51579 19.3945 7.91016 19.7889 7.91016 20.2734C7.91016 20.758 7.51579 21.1523 7.03125 21.1523Z" fill="#EDAE50"/>
<path d="M28.2422 18.1043V15C28.2422 13.0614 26.6652 11.4844 24.7266 11.4844H22.9688V7.08984C22.9688 6.6053 23.3632 6.21094 23.8477 6.21094V4.45312C22.3938 4.45312 21.211 5.63599 21.211 7.08984V11.4844H17.3532L15.2438 4.45312H16.6993V2.69531H2.63676V4.45312H4.39458V10.0628C2.90936 10.4469 1.51341 11.1514 0.319336 12.1376L1.43857 13.493C3.0071 12.1978 4.99333 11.4844 7.0313 11.4844C11.8776 11.4844 15.8204 15.4271 15.8204 20.2734V22.9102H19.5269C19.9466 25.4011 22.1183 27.3047 24.7266 27.3047C27.6343 27.3047 30 24.939 30 22.0312C30 20.473 29.3205 19.0707 28.2422 18.1043ZM6.15239 9.76387V4.45312H13.4086L15.518 11.4844H12.8545C11.1846 10.3743 9.18233 9.72656 7.0313 9.72656C6.73718 9.72656 6.44398 9.73938 6.15239 9.76387ZM14.8851 13.2422H24.7266C25.6959 13.2422 26.4844 14.0307 26.4844 15V17.0595C25.9344 16.8645 25.3428 16.7578 24.7266 16.7578H16.9748C16.5104 15.4484 15.7947 14.257 14.8851 13.2422ZM17.4308 18.5156H20.7997C20.1485 19.2421 19.6958 20.1496 19.5269 21.1523H17.5782V20.2734C17.5782 19.6747 17.5274 19.0876 17.4308 18.5156ZM24.7266 25.5469C22.788 25.5469 21.211 23.9699 21.211 22.0312C21.211 20.0926 22.788 18.5156 24.7266 18.5156C26.6652 18.5156 28.2422 20.0926 28.2422 22.0312C28.2422 23.9699 26.6652 25.5469 24.7266 25.5469Z" fill="#EDAE50"/>
<path d="M25.6055 22.0312C25.6055 22.5167 25.212 22.9102 24.7266 22.9102C24.2411 22.9102 23.8477 22.5167 23.8477 22.0312C23.8477 21.5458 24.2411 21.1523 24.7266 21.1523C25.212 21.1523 25.6055 21.5458 25.6055 22.0312Z" fill="#EDAE50"/>
</g>
<defs>
<clipPath id="clip0_280_102388">
<rect width="30" height="30" fill="white"/>
</clipPath>
</defs>
</svg>
