<svg width="74" height="74" viewBox="0 0 74 74" fill="none" xmlns="http://www.w3.org/2000/svg">
<path d="M72.7667 37C72.7667 56.8231 56.8231 72.7667 37 72.7667C17.1769 72.7667 1.23333 56.8231 1.23333 37C1.23333 17.1769 17.1769 1.23333 37 1.23333C56.8231 1.23333 72.7667 17.1769 72.7667 37Z" fill="#6F41D8" stroke="#F6F6F6" stroke-width="2.46667"/>
<g clip-path="url(#clip0_280_95334)">
<path d="M37.0001 71.9436C56.2994 71.9436 71.9445 56.2984 71.9445 36.9991C71.9445 17.6998 56.2994 2.05469 37.0001 2.05469C17.7008 2.05469 2.05566 17.6998 2.05566 36.9991C2.05566 56.2984 17.7008 71.9436 37.0001 71.9436Z" fill="#000D2B"/>
<path d="M36.8254 14.8965L26.958 20.6776L36.8254 26.4609L46.8785 20.6776L36.8254 14.8965ZM38.4482 45.7655V57.33L51.8515 49.6837V38.1171L38.4482 45.7655ZM48.5012 24.314V35.8806L38.446 41.6639V30.0973L48.5012 24.314ZM24.2979 35.8806L34.3531 41.6639V30.0973L24.2979 24.314V35.8806ZM24.2979 51.5488L34.3531 57.33V45.7655L24.2979 39.9844V51.5466V51.5488Z" fill="white"/>
</g>
<defs>
<clipPath id="clip0_280_95334">
<rect width="69.8889" height="69.8889" fill="white" transform="translate(2.05615 2.05469)"/>
</clipPath>
</defs>
</svg>
