<svg width="74" height="74" viewBox="0 0 74 74" fill="none" xmlns="http://www.w3.org/2000/svg">
<path d="M72.7667 37C72.7667 56.8231 56.8231 72.7667 37 72.7667C17.1769 72.7667 1.23333 56.8231 1.23333 37C1.23333 17.1769 17.1769 1.23333 37 1.23333C56.8231 1.23333 72.7667 17.1769 72.7667 37Z" fill="#070A0E" stroke="#F6F6F6" stroke-width="2.46667"/>
<path fill-rule="evenodd" clip-rule="evenodd" d="M20.2915 49.733C19.1802 49.0386 18.5 47.8052 18.5 46.477V39.0616C18.5 38.1812 19.2025 37.4677 20.0647 37.4715C20.3398 37.4715 20.6111 37.5474 20.849 37.6878L37.2359 47.4447C38.1948 48.0139 38.7858 49.0613 38.7858 50.196V57.877C38.7895 58.932 37.9532 59.7897 36.92 59.7897C36.5743 59.7897 36.2324 59.691 35.9388 59.5088L20.2915 49.733ZM44.7176 35.6575C45.6765 36.2268 46.2638 37.278 46.2675 38.4089V53.9986C46.2675 54.4578 46.0259 54.8828 45.6319 55.1067L42.0453 57.1674C42.0007 57.1939 41.9524 57.2129 41.9004 57.2281V48.5718C41.9004 47.4523 41.3243 46.4124 40.3802 45.8356L25.9892 37.0465V27.2745C25.9892 26.394 26.6916 25.6806 27.5539 25.6844C27.8289 25.6844 28.1002 25.7603 28.3381 25.9007L44.7176 35.6575ZM51.8909 24.1436C52.8535 24.7129 53.4444 25.7641 53.4444 26.8988V49.6685C53.4407 50.1353 53.188 50.5641 52.7866 50.788L49.3858 52.6627V36.8112C49.3858 35.6917 48.8097 34.6557 47.8731 34.0788L33.1624 25.0696V15.8023C33.1624 15.5215 33.2367 15.2445 33.3705 15.0016C33.8054 14.2426 34.7606 13.9845 35.5039 14.4247L51.8909 24.1436Z" fill="#00D395"/>
</svg>
