<svg width="19" height="13" viewBox="0 0 19 13" fill="none" xmlns="http://www.w3.org/2000/svg">
<path d="M18.5608 11.4178C10.3762 14.1691 3.94546 8.32256 1.68008 1.37547C3.36085 1.92573 5.04162 2.54478 6.79546 3.09505C7.45315 3.3014 7.74546 2.33843 7.08777 2.13208C5.11469 1.30669 3.14161 0.687639 1.16854 -0.000191517C0.803153 -0.137758 0.437768 0.206158 0.437768 0.550073C0.437768 0.825205 0.437768 1.16912 0.437768 1.44425C-0.0737703 3.3014 -0.146847 4.88341 0.364691 6.74055C0.510845 7.42838 1.46085 7.22203 1.46085 6.67177C1.46085 5.77759 1.53392 4.95219 1.53392 4.05801C4.60315 10.3173 11.2532 15.2009 18.8532 11.9681C19.1455 11.8305 18.9262 11.2802 18.5608 11.4178Z" fill="#E9E9E9"/>
</svg>
