<svg width="18" height="16" viewBox="0 0 18 16" fill="none" xmlns="http://www.w3.org/2000/svg">
<path d="M16.8388 0.407964C10.3711 2.52553 5.17551 7.41726 1.43384 13.107C1.44394 12.9972 1.3949 12.9374 1.405 12.8276C1.62572 11.0211 1.84644 9.21461 2.1263 7.35821C2.17174 6.86417 1.42459 6.68473 1.27096 7.16881C0.55334 9.04031 0.33262 10.8468 0.544617 12.6931C0.414786 13.5115 0.339045 14.3349 0.209215 15.1533C0.16882 15.5925 0.645526 15.747 0.936172 15.5523C3.32047 13.9449 5.50861 12.0979 7.50059 10.0115C7.92466 9.5523 7.33618 8.83388 6.91211 9.29309C5.40334 10.8704 3.80154 12.273 2.10166 13.556C5.64212 7.68162 10.9141 3.73798 16.9758 0.697355C17.1482 0.602496 17.0061 0.367998 16.8388 0.407964Z" fill="#E9E9E9"/>
</svg>
