<svg width="21" height="20" viewBox="0 0 21 20" fill="none" xmlns="http://www.w3.org/2000/svg">
<path d="M7.23225 18.8099C7.4346 16.8986 7.49116 15.029 7.26128 13.1231C7.20903 12.6649 6.40177 12.4621 6.37596 13.061C6.25145 14.2796 6.12694 15.4982 6.00243 16.7169C3.4284 12.958 -0.599519 6.73639 3.26326 3.42283C7.54773 -0.208554 14.9989 0.999634 19.4989 3.49963C19.6343 3.69747 20.1343 3.19744 19.9989 2.9996C15.9989 -0.000373527 7.5058 -0.906361 2.74222 2.70438C-1.75063 6.15879 2.37642 12.8646 5.01303 16.8422C4.17437 16.2541 3.36173 15.6191 2.52307 15.0309C2.03343 14.6978 1.59109 15.4948 2.08074 15.8279C3.57054 16.9001 5.06034 17.9723 6.55014 19.0445C6.80539 19.2475 7.1959 19.0963 7.23225 18.8099Z" fill="#E9E9E9"/>
</svg>
