<svg width="34" height="13" viewBox="0 0 34 13" fill="none" xmlns="http://www.w3.org/2000/svg">
<path d="M28.8094 0.963849C29.947 2.39763 31.0846 3.83142 32.1536 5.22562C32.0995 5.24011 31.9914 5.26909 31.9373 5.28357C27.2096 1.91412 21.0491 0.551248 15.4691 2.22025C9.72699 3.93271 3.08401 6.17631 0.769078 12.2442C0.664818 12.504 1.0472 12.6333 1.11188 12.4421C3.5823 6.73824 9.72803 4.80173 15.2539 3.14722C20.4157 1.6482 26.244 2.63645 30.7478 5.60232C29.5582 5.92106 28.3686 6.2398 27.1791 6.55854C26.5843 6.71792 26.8161 7.58305 27.4254 7.47775C29.0765 7.15125 30.688 6.8933 32.3391 6.56679C32.5554 6.50884 32.6741 6.30316 32.6703 6.07239C32.7784 6.04341 32.9406 5.99995 33.0488 5.97097C33.4273 5.86955 33.488 5.44759 33.2389 5.16663C31.9352 3.54553 30.6856 1.90995 29.382 0.288862C29.0894 -0.154314 28.3942 0.49558 28.8094 0.963849Z" fill="#E9E9E9"/>
</svg>
