<svg width="46" height="22" viewBox="0 0 46 22" fill="none" xmlns="http://www.w3.org/2000/svg">
<path d="M45.5183 3.47031C43.2875 2.26983 40.99 1.4215 38.5154 0.939568C37.9969 0.834771 37.7677 1.66596 38.2455 1.89052C39.2563 2.3325 40.2599 2.71817 41.2561 3.04753C36.1432 3.4217 29.8108 5.21302 26.5096 9.18929C25.0021 8.81146 23.4686 8.66601 22.0673 8.67526C13.0639 8.46412 6.32448 14.4877 1.03305 21.2975C0.889334 21.4879 1.13915 21.6846 1.28287 21.4943C4.79026 17.3769 8.51838 13.2309 13.5016 10.9841C17.0532 9.3802 21.9497 8.6332 26.1263 9.69684C25.4556 10.5851 24.9723 11.6208 24.6691 12.7479C23.9814 15.2414 24.5877 18.1976 26.9579 19.6091C28.8983 20.7326 31.4365 20.4047 32.6384 18.4173C34.0247 16.1198 33.1352 13.1429 31.2325 11.442C30.2187 10.5423 29.0757 9.94567 27.7817 9.48301C27.8848 9.41244 27.9327 9.34899 28.0285 9.22211C32.2272 5.24442 38.4783 3.69262 44.0575 3.88803C44.1127 3.8809 44.1679 3.87377 44.2231 3.86664C44.3407 3.9087 44.4583 3.95076 44.5281 4.05627C43.67 4.79691 42.7902 5.36861 41.7302 5.84906C41.145 6.09642 41.5446 7.01815 42.1298 6.77079C43.5614 6.12782 44.6954 5.35153 45.7857 4.23735C45.9773 3.98358 45.816 3.60362 45.5183 3.47031ZM30.1289 11.5845C31.5654 12.7159 32.5634 14.3619 32.4099 16.2139C32.1115 19.1152 29.0462 20.141 26.9155 18.4122C24.1602 16.1917 25.3501 12.3736 27.2881 10.0048C28.2989 10.4468 29.2618 10.9522 30.1289 11.5845Z" fill="#E9E9E9"/>
</svg>
