<svg width="21" height="18" viewBox="0 0 21 18" fill="none" xmlns="http://www.w3.org/2000/svg">
<path d="M0.187342 1.31936C-0.0330018 1.2879 0.0219267 0.921025 0.24227 0.952483C8.30301 1.72858 14.0084 7.7142 19.0215 13.5635C18.9128 12.5363 18.804 11.509 18.653 10.5132C18.5518 9.93665 19.4661 9.84236 19.5674 10.4189C19.9445 12.1589 20.3529 13.9409 20.6878 15.7124C20.7485 16.0584 20.4218 16.2365 20.128 16.1946C20.1372 16.3833 20.1465 16.572 20.187 16.8026C20.2165 17.1066 19.9522 17.3686 19.6584 17.3266C17.802 16.9492 16.0409 16.4355 14.3129 15.7016C13.8207 15.4815 14.1307 14.6639 14.6963 14.8945C16.226 15.4502 17.6932 15.9219 19.2559 16.2574C19.2373 15.8801 19.2188 15.5027 19.2003 15.1254C14.0749 8.7729 8.50546 2.88163 0.187342 1.31936Z" fill="#E9E9E9"/>
</svg>
