<svg width="24" height="18" viewBox="0 0 24 18" fill="none" xmlns="http://www.w3.org/2000/svg">
<path d="M1.26691 0.652713C0.974532 2.56008 0.734769 4.45382 0.442391 6.36118C0.370753 6.95213 1.28492 7.23075 1.35655 6.6398C1.52759 5.56521 1.69863 4.49061 1.86967 3.41602C6.18445 11.6298 13.9134 18.5022 23.612 17.3663C23.9416 17.3383 23.9357 16.8818 23.5923 16.8562C13.7271 17.3483 5.99816 10.4759 2.09847 1.69684C2.09847 1.69684 2.09847 1.69683 2.08459 1.64319C3.04331 2.31096 3.94942 2.99235 4.89426 3.60647C5.37362 3.94036 5.83841 3.1332 5.35905 2.79931C4.23957 1.94417 3.08135 1.1563 1.92314 0.368425C1.70977 0.194675 1.30273 0.357242 1.26691 0.652713Z" fill="#E9E9E9"/>
</svg>
